<svg xmlns="http://www.w3.org/2000/svg" viewBox="-12 -31.48 1012.79 224" role="img" aria-label="calificata.ro — semnătura electronică calificată">
  <defs>
    <linearGradient id="cf_seal_main" x1="14%" y1="10%" x2="88%" y2="92%">
      <stop offset="0%" stop-color="#4A26F4"></stop>
      <stop offset="100%" stop-color="#1340FF"></stop>
    </linearGradient>
    <linearGradient id="cf_seal_dot" x1="14%" y1="10%" x2="88%" y2="92%">
      <stop offset="0%" stop-color="#4A26F4"></stop>
      <stop offset="100%" stop-color="#1340FF"></stop>
    </linearGradient>
  </defs>

  
  <svg x="0" y="-19.475" width="200" height="200" viewBox="0 0 220 220" overflow="visible">
    <path fill="url(#cf_seal_main)" d="M110.00 10.00 C121.35 10.00 132.27 22.89 144.06 27.77 C155.84 32.66 172.68 31.26 180.71 39.29 C188.74 47.32 187.34 64.16 192.23 75.94 C197.11 87.73 210.00 98.65 210.00 110.00 C210.00 121.35 197.11 132.27 192.23 144.06 C187.34 155.84 188.74 172.68 180.71 180.71 C172.68 188.74 155.84 187.34 144.06 192.23 C132.27 197.11 121.35 210.00 110.00 210.00 C98.65 210.00 87.73 197.11 75.94 192.23 C64.16 187.34 47.32 188.74 39.29 180.71 C31.26 172.68 32.66 155.84 27.77 144.06 C22.89 132.27 10.00 121.35 10.00 110.00 C10.00 98.65 22.89 87.73 27.77 75.94 C32.66 64.16 31.26 47.32 39.29 39.29 C47.32 31.26 64.16 32.66 75.94 27.77 C87.73 22.89 98.65 10.00 110.00 10.00 Z"></path>
    <circle cx="110" cy="110" r="53" fill="none" stroke="#fff" stroke-width="9" stroke-linecap="round" stroke-dasharray="298 35" stroke-dashoffset="17.1"></circle>
    <path d="M88.6 110 L110 128 L153.1 76.6" fill="none" stroke="#fff" stroke-width="10" stroke-linecap="round" stroke-linejoin="round"></path>
  </svg>

  
  <g fill="#050E27">
    <path transform="translate(248,0)" d="M3.30 57.86Q3.30 47.59 7.49 39.92Q11.68 32.25 19.18 28.12Q26.67 23.99 36.34 23.99L36.34 23.99Q48.73 23.99 57.05 30.48Q65.37 36.97 67.97 48.77L67.97 48.77L46.49 48.77Q43.78 41.22 35.99 41.22L35.99 41.22Q30.44 41.22 27.14 45.53Q23.84 49.83 23.84 57.86L23.84 57.86Q23.84 65.88 27.14 70.19Q30.44 74.50 35.99 74.50L35.99 74.50Q43.78 74.50 46.49 66.94L46.49 66.94L67.97 66.94Q65.37 78.51 56.99 85.12Q48.62 91.72 36.34 91.72L36.34 91.72Q26.67 91.72 19.18 87.59Q11.68 83.46 7.49 75.79Q3.30 68.12 3.30 57.86L3.30 57.86ZM75.17 57.74Q75.17 47.59 79.00 39.92Q82.84 32.25 89.44 28.12Q96.05 23.99 104.19 23.99L104.19 23.99Q111.16 23.99 116.41 26.82Q121.66 29.66 124.49 34.26L124.49 34.26L124.49 24.94L144.67 24.94L144.67 90.78L124.49 90.78L124.49 81.46Q121.54 86.06 116.29 88.89Q111.04 91.72 104.08 91.72L104.08 91.72Q96.05 91.72 89.44 87.53Q82.84 83.35 79.00 75.62Q75.17 67.89 75.17 57.74L75.17 57.74ZM124.49 57.86Q124.49 50.31 120.30 45.94Q116.11 41.57 110.09 41.57L110.09 41.57Q104.08 41.57 99.89 45.88Q95.70 50.19 95.70 57.74L95.70 57.74Q95.70 65.29 99.89 69.72Q104.08 74.14 110.09 74.14L110.09 74.14Q116.11 74.14 120.30 69.78Q124.49 65.41 124.49 57.86L124.49 57.86ZM159.77 3.46L179.95 3.46L179.95 90.78L159.77 90.78L159.77 3.46ZM205.20 18.09Q199.89 18.09 196.53 14.96Q193.17 11.84 193.17 7.24L193.17 7.24Q193.17 2.52 196.53-0.61Q199.89-3.74 205.20-3.74L205.20-3.74Q210.39-3.74 213.76-0.61Q217.12 2.52 217.12 7.24L217.12 7.24Q217.12 11.84 213.76 14.96Q210.39 18.09 205.20 18.09L205.20 18.09ZM195.05 24.94L215.23 24.94L215.23 90.78L195.05 90.78L195.05 24.94ZM263.38 24.94L263.38 41.69L252.52 41.69L252.52 90.78L232.34 90.78L232.34 41.69L225.03 41.69L225.03 24.94L232.34 24.94L232.34 23.05Q232.34 10.89 239.30 4.58Q246.27-1.73 259.72-1.73L259.72-1.73Q261.96-1.73 263.02-1.61L263.02-1.61L263.02 15.50Q257.24 15.14 254.88 17.15Q252.52 19.15 252.52 24.35L252.52 24.35L252.52 24.94L263.38 24.94ZM283.44 18.09Q278.13 18.09 274.76 14.96Q271.40 11.84 271.40 7.24L271.40 7.24Q271.40 2.52 274.76-0.61Q278.13-3.74 283.44-3.74L283.44-3.74Q288.63-3.74 291.99-0.61Q295.35 2.52 295.35 7.24L295.35 7.24Q295.35 11.84 291.99 14.96Q288.63 18.09 283.44 18.09L283.44 18.09ZM273.29 24.94L293.47 24.94L293.47 90.78L273.29 90.78L273.29 24.94ZM304.56 57.86Q304.56 47.59 308.75 39.92Q312.94 32.25 320.43 28.12Q327.92 23.99 337.60 23.99L337.60 23.99Q349.99 23.99 358.31 30.48Q366.63 36.97 369.22 48.77L369.22 48.77L347.75 48.77Q345.03 41.22 337.24 41.22L337.24 41.22Q331.70 41.22 328.39 45.53Q325.09 49.83 325.09 57.86L325.09 57.86Q325.09 65.88 328.39 70.19Q331.70 74.50 337.24 74.50L337.24 74.50Q345.03 74.50 347.75 66.94L347.75 66.94L369.22 66.94Q366.63 78.51 358.25 85.12Q349.87 91.72 337.60 91.72L337.60 91.72Q327.92 91.72 320.43 87.59Q312.94 83.46 308.75 75.79Q304.56 68.12 304.56 57.86L304.56 57.86ZM376.42 57.74Q376.42 47.59 380.25 39.92Q384.09 32.25 390.70 28.12Q397.31 23.99 405.45 23.99L405.45 23.99Q412.41 23.99 417.66 26.82Q422.91 29.66 425.74 34.26L425.74 34.26L425.74 24.94L445.92 24.94L445.92 90.78L425.74 90.78L425.74 81.46Q422.79 86.06 417.54 88.89Q412.29 91.72 405.33 91.72L405.33 91.72Q397.31 91.72 390.70 87.53Q384.09 83.35 380.25 75.62Q376.42 67.89 376.42 57.74L376.42 57.74ZM425.74 57.86Q425.74 50.31 421.56 45.94Q417.37 41.57 411.35 41.57L411.35 41.57Q405.33 41.57 401.14 45.88Q396.95 50.19 396.95 57.74L396.95 57.74Q396.95 65.29 401.14 69.72Q405.33 74.14 411.35 74.14L411.35 74.14Q417.37 74.14 421.56 69.78Q425.74 65.41 425.74 57.86L425.74 57.86ZM490.53 73.67L497.72 73.67L497.72 90.78L487.46 90.78Q476.48 90.78 470.35 85.41Q464.21 80.04 464.21 67.89L464.21 67.89L464.21 41.69L456.19 41.69L456.19 24.94L464.21 24.94L464.21 8.89L484.39 8.89L484.39 24.94L497.61 24.94L497.61 41.69L484.39 41.69L484.39 68.12Q484.39 71.07 485.81 72.37Q487.22 73.67 490.53 73.67L490.53 73.67ZM505.39 57.74Q505.39 47.59 509.23 39.92Q513.06 32.25 519.67 28.12Q526.28 23.99 534.42 23.99L534.42 23.99Q541.38 23.99 546.63 26.82Q551.89 29.66 554.72 34.26L554.72 34.26L554.72 24.94L574.90 24.94L574.90 90.78L554.72 90.78L554.72 81.46Q551.77 86.06 546.52 88.89Q541.27 91.72 534.30 91.72L534.30 91.72Q526.28 91.72 519.67 87.53Q513.06 83.35 509.23 75.62Q505.39 67.89 505.39 57.74L505.39 57.74ZM554.72 57.86Q554.72 50.31 550.53 45.94Q546.34 41.57 540.32 41.57L540.32 41.57Q534.30 41.57 530.12 45.88Q525.93 50.19 525.93 57.74L525.93 57.74Q525.93 65.29 530.12 69.72Q534.30 74.14 540.32 74.14L540.32 74.14Q546.34 74.14 550.53 69.78Q554.72 65.41 554.72 57.86L554.72 57.86Z"></path>
    <path transform="translate(862.65,0)" d="M27.49 35.91Q31.03 30.48 36.34 27.35Q41.65 24.23 48.14 24.23L48.14 24.23L48.14 45.59L42.60 45.59Q35.05 45.59 31.27 48.83Q27.49 52.08 27.49 60.22L27.49 60.22L27.49 90.78L7.32 90.78L7.32 24.94L27.49 24.94L27.49 35.91ZM88.26 91.72Q78.59 91.72 70.86 87.59Q63.13 83.46 58.70 75.79Q54.28 68.12 54.28 57.86L54.28 57.86Q54.28 47.71 58.76 39.98Q63.25 32.25 71.04 28.12Q78.82 23.99 88.50 23.99L88.50 23.99Q98.18 23.99 105.96 28.12Q113.75 32.25 118.24 39.98Q122.72 47.71 122.72 57.86L122.72 57.86Q122.72 68.01 118.18 75.73Q113.63 83.46 105.79 87.59Q97.94 91.72 88.26 91.72L88.26 91.72ZM88.26 74.26Q94.05 74.26 98.12 70.01Q102.19 65.76 102.19 57.86L102.19 57.86Q102.19 49.95 98.23 45.70Q94.28 41.46 88.50 41.46L88.50 41.46Q82.60 41.46 78.71 45.64Q74.81 49.83 74.81 57.86L74.81 57.86Q74.81 65.76 78.65 70.01Q82.48 74.26 88.26 74.26L88.26 74.26Z"></path>
  </g>

  
  <svg x="831.97" y="64.82" width="30.68" height="30.68" viewBox="0 0 220 220" overflow="visible">
    <path fill="url(#cf_seal_dot)" d="M110.00 10.00 C121.35 10.00 132.27 22.89 144.06 27.77 C155.84 32.66 172.68 31.26 180.71 39.29 C188.74 47.32 187.34 64.16 192.23 75.94 C197.11 87.73 210.00 98.65 210.00 110.00 C210.00 121.35 197.11 132.27 192.23 144.06 C187.34 155.84 188.74 172.68 180.71 180.71 C172.68 188.74 155.84 187.34 144.06 192.23 C132.27 197.11 121.35 210.00 110.00 210.00 C98.65 210.00 87.73 197.11 75.94 192.23 C64.16 187.34 47.32 188.74 39.29 180.71 C31.26 172.68 32.66 155.84 27.77 144.06 C22.89 132.27 10.00 121.35 10.00 110.00 C10.00 98.65 22.89 87.73 27.77 75.94 C32.66 64.16 31.26 47.32 39.29 39.29 C47.32 31.26 64.16 32.66 75.94 27.77 C87.73 22.89 98.65 10.00 110.00 10.00 Z"></path>
    <circle cx="110" cy="110" r="53" fill="none" stroke="#fff" stroke-width="9" stroke-linecap="round" stroke-dasharray="298 35" stroke-dashoffset="17.1"></circle>
    <path d="M88.6 110 L110 128 L153.1 76.6" fill="none" stroke="#fff" stroke-width="10" stroke-linecap="round" stroke-linejoin="round"></path>
  </svg>

  
  <path transform="translate(248,0)" fill="#8B97BB" d="M9.05 151.37Q6.91 151.37 5.29 150.62Q3.66 149.88 2.73 148.55Q1.80 147.21 1.74 145.57L1.74 145.57L4.03 145.57Q4.18 147.15 5.42 148.34Q6.67 149.54 9.05 149.54L9.05 149.54Q11.25 149.54 12.54 148.41Q13.83 147.28 13.83 145.54L13.83 145.54Q13.83 144.14 13.11 143.29Q12.40 142.44 11.35 142.02Q10.29 141.60 8.43 141.11L8.43 141.11Q6.26 140.52 4.99 139.96Q3.72 139.40 2.82 138.22Q1.92 137.05 1.92 135.03L1.92 135.03Q1.92 133.36 2.79 132.04Q3.66 130.72 5.24 129.98Q6.82 129.23 8.87 129.23L8.87 129.23Q11.87 129.23 13.72 130.71Q15.56 132.18 15.84 134.50L15.84 134.50L13.48 134.50Q13.27 133.17 12.03 132.13Q10.79 131.09 8.68 131.09L8.68 131.09Q6.73 131.09 5.42 132.13Q4.12 133.17 4.12 134.97L4.12 134.97Q4.12 136.33 4.84 137.17Q5.55 138.01 6.62 138.44Q7.69 138.87 9.52 139.37L9.52 139.37Q11.63 139.96 12.93 140.53Q14.23 141.11 15.13 142.28Q16.03 143.46 16.03 145.45L16.03 145.45Q16.03 146.97 15.22 148.33Q14.41 149.69 12.83 150.53Q11.25 151.37 9.05 151.37L9.05 151.37ZM37.38 131.25L28.23 131.25L28.23 139.34L36.45 139.34L36.45 141.14L28.23 141.14L28.23 149.35L37.38 149.35L37.38 151.15L26.06 151.15L26.06 129.45L37.38 129.45L37.38 131.25ZM66.36 129.76L68.68 129.76L68.68 151.15L66.51 151.15L66.51 134.07L58.89 151.15L57.31 151.15L49.68 134.13L49.68 151.15L47.51 151.15L47.51 129.76L49.80 129.76L58.08 148.30L66.36 129.76ZM95.80 129.48L95.80 151.15L93.63 151.15L81.63 132.92L81.63 151.15L79.46 151.15L79.46 129.48L81.63 129.48L93.63 147.68L93.63 129.48L95.80 129.48ZM121.03 151.15L119.14 146.00L109.28 146.00L107.39 151.15L105.10 151.15L113.00 129.76L115.45 129.76L123.32 151.15L121.03 151.15ZM109.93 144.21L118.49 144.21L114.21 132.49L109.93 144.21ZM118.43 124.09Q118.43 125.73 117.32 126.81Q116.22 127.90 114.21 127.90L114.21 127.90Q112.19 127.90 111.11 126.81Q110.02 125.73 110.02 124.09L110.02 124.09L110.02 123.68L111.39 123.68Q111.39 126.16 114.21 126.16L114.21 126.16Q117.03 126.16 117.03 123.68L117.03 123.68L118.43 123.68L118.43 124.09ZM131.10 129.48L145.33 129.48L145.33 131.28L139.31 131.28L139.31 151.15L137.14 151.15L137.14 131.28L131.10 131.28L131.10 129.48ZM154.53 129.48L156.70 129.48L156.70 143.12Q156.70 146.34 158.23 147.90Q159.77 149.44 162.43 149.44L162.43 149.44Q165.10 149.44 166.60 147.91Q168.11 146.38 168.11 143.12L168.11 143.12L168.11 129.48L170.28 129.48L170.28 143.09Q170.28 147.21 168.09 149.29Q165.90 151.37 162.40 151.37L162.40 151.37Q158.90 151.37 156.71 149.29Q154.53 147.21 154.53 143.09L154.53 143.09L154.53 129.48ZM195.10 151.15L192.50 151.15L187.13 142.10L183.13 142.10L183.13 151.15L180.96 151.15L180.96 129.48L187.47 129.48Q191.10 129.48 192.98 131.22Q194.85 132.95 194.85 135.77L194.85 135.77Q194.85 138.13 193.50 139.79Q192.16 141.45 189.52 141.94L189.52 141.94L195.10 151.15ZM183.13 131.31L183.13 140.33L187.51 140.33Q190.05 140.33 191.33 139.09Q192.62 137.85 192.62 135.77L192.62 135.77Q192.62 133.63 191.38 132.47Q190.14 131.31 187.47 131.31L187.47 131.31L183.13 131.31ZM219.46 151.15L217.57 146.00L207.71 146.00L205.82 151.15L203.53 151.15L211.43 129.76L213.88 129.76L221.75 151.15L219.46 151.15ZM208.36 144.21L216.92 144.21L212.64 132.49L208.36 144.21ZM256.74 131.25L247.59 131.25L247.59 139.34L255.81 139.34L255.81 141.14L247.59 141.14L247.59 149.35L256.74 149.35L256.74 151.15L245.42 151.15L245.42 129.45L256.74 129.45L256.74 131.25ZM269.04 129.48L269.04 149.38L276.82 149.38L276.82 151.15L266.87 151.15L266.87 129.48L269.04 129.48ZM297.09 131.25L287.94 131.25L287.94 139.34L296.16 139.34L296.16 141.14L287.94 141.14L287.94 149.35L297.09 149.35L297.09 151.15L285.77 151.15L285.77 129.45L297.09 129.45L297.09 131.25ZM306.23 140.30Q306.23 137.11 307.62 134.58Q309.02 132.05 311.44 130.64Q313.85 129.23 316.83 129.23L316.83 129.23Q320.46 129.23 323.05 130.95Q325.63 132.67 326.81 135.81L326.81 135.81L324.27 135.81Q323.34 133.60 321.43 132.36Q319.53 131.12 316.83 131.12L316.83 131.12Q314.44 131.12 312.54 132.24Q310.63 133.36 309.54 135.45Q308.46 137.54 308.46 140.30L308.46 140.30Q308.46 143.06 309.54 145.14Q310.63 147.21 312.54 148.33Q314.44 149.44 316.83 149.44L316.83 149.44Q319.53 149.44 321.43 148.22Q323.34 147.00 324.27 144.83L324.27 144.83L326.81 144.83Q325.63 147.93 323.03 149.63Q320.43 151.34 316.83 151.34L316.83 151.34Q313.85 151.34 311.44 149.93Q309.02 148.52 307.62 146.00Q306.23 143.49 306.23 140.30L306.23 140.30ZM335.42 129.48L349.65 129.48L349.65 131.28L343.64 131.28L343.64 151.15L341.47 151.15L341.47 131.28L335.42 131.28L335.42 129.48ZM373.08 151.15L370.48 151.15L365.11 142.10L361.12 142.10L361.12 151.15L358.95 151.15L358.95 129.48L365.46 129.48Q369.08 129.48 370.96 131.22Q372.83 132.95 372.83 135.77L372.83 135.77Q372.83 138.13 371.49 139.79Q370.14 141.45 367.50 141.94L367.50 141.94L373.08 151.15ZM361.12 131.31L361.12 140.33L365.49 140.33Q368.03 140.33 369.32 139.09Q370.60 137.85 370.60 135.77L370.60 135.77Q370.60 133.63 369.36 132.47Q368.12 131.31 365.46 131.31L365.46 131.31L361.12 131.31ZM392.73 151.37Q389.72 151.37 387.27 149.96Q384.82 148.55 383.41 146.02Q382.00 143.49 382.00 140.30L382.00 140.30Q382.00 137.11 383.41 134.58Q384.82 132.05 387.27 130.64Q389.72 129.23 392.73 129.23L392.73 129.23Q395.77 129.23 398.22 130.64Q400.67 132.05 402.06 134.58Q403.46 137.11 403.46 140.30L403.46 140.30Q403.46 143.49 402.06 146.02Q400.67 148.55 398.22 149.96Q395.77 151.37 392.73 151.37L392.73 151.37ZM392.73 149.48Q395.15 149.48 397.07 148.36Q398.99 147.24 400.11 145.15Q401.22 143.06 401.22 140.30L401.22 140.30Q401.22 137.54 400.11 135.46Q398.99 133.39 397.07 132.27Q395.15 131.16 392.73 131.16L392.73 131.16Q390.31 131.16 388.39 132.27Q386.47 133.39 385.35 135.46Q384.24 137.54 384.24 140.30L384.24 140.30Q384.24 143.06 385.35 145.15Q386.47 147.24 388.39 148.36Q390.31 149.48 392.73 149.48L392.73 149.48ZM429.61 129.48L429.61 151.15L427.44 151.15L415.45 132.92L415.45 151.15L413.28 151.15L413.28 129.48L415.45 129.48L427.44 147.68L427.44 129.48L429.61 129.48ZM440.39 129.48L442.56 129.48L442.56 151.15L440.39 151.15L440.39 129.48ZM452.35 140.30Q452.35 137.11 453.75 134.58Q455.14 132.05 457.56 130.64Q459.98 129.23 462.96 129.23L462.96 129.23Q466.58 129.23 469.17 130.95Q471.76 132.67 472.94 135.81L472.94 135.81L470.40 135.81Q469.47 133.60 467.56 132.36Q465.65 131.12 462.96 131.12L462.96 131.12Q460.57 131.12 458.66 132.24Q456.76 133.36 455.67 135.45Q454.59 137.54 454.59 140.30L454.59 140.30Q454.59 143.06 455.67 145.14Q456.76 147.21 458.66 148.33Q460.57 149.44 462.96 149.44L462.96 149.44Q465.65 149.44 467.56 148.22Q469.47 147.00 470.40 144.83L470.40 144.83L472.94 144.83Q471.76 147.93 469.16 149.63Q466.55 151.34 462.96 151.34L462.96 151.34Q459.98 151.34 457.56 149.93Q455.14 148.52 453.75 146.00Q452.35 143.49 452.35 140.30L452.35 140.30ZM497.55 151.15L495.65 146.00L485.80 146.00L483.91 151.15L481.61 151.15L489.52 129.76L491.97 129.76L499.84 151.15L497.55 151.15ZM486.45 144.21L495.00 144.21L490.73 132.49L486.45 144.21ZM494.94 124.09Q494.94 125.73 493.84 126.81Q492.74 127.90 490.73 127.90L490.73 127.90Q488.71 127.90 487.63 126.81Q486.54 125.73 486.54 124.09L486.54 124.09L486.54 123.68L487.90 123.68Q487.90 126.16 490.73 126.16L490.73 126.16Q493.55 126.16 493.55 123.68L493.55 123.68L494.94 123.68L494.94 124.09ZM522.52 140.30Q522.52 137.11 523.91 134.58Q525.31 132.05 527.73 130.64Q530.14 129.23 533.12 129.23L533.12 129.23Q536.75 129.23 539.34 130.95Q541.92 132.67 543.10 135.81L543.10 135.81L540.56 135.81Q539.63 133.60 537.72 132.36Q535.82 131.12 533.12 131.12L533.12 131.12Q530.73 131.12 528.83 132.24Q526.92 133.36 525.84 135.45Q524.75 137.54 524.75 140.30L524.75 140.30Q524.75 143.06 525.84 145.14Q526.92 147.21 528.83 148.33Q530.73 149.44 533.12 149.44L533.12 149.44Q535.82 149.44 537.72 148.22Q539.63 147.00 540.56 144.83L540.56 144.83L543.10 144.83Q541.92 147.93 539.32 149.63Q536.72 151.34 533.12 151.34L533.12 151.34Q530.14 151.34 527.73 149.93Q525.31 148.52 523.91 146.00Q522.52 143.49 522.52 140.30L522.52 140.30ZM567.71 151.15L565.82 146.00L555.96 146.00L554.07 151.15L551.78 151.15L559.68 129.76L562.13 129.76L570.00 151.15L567.71 151.15ZM556.61 144.21L565.17 144.21L560.89 132.49L556.61 144.21ZM581.50 129.48L581.50 149.38L589.28 149.38L589.28 151.15L579.33 151.15L579.33 129.48L581.50 129.48ZM598.23 129.48L600.40 129.48L600.40 151.15L598.23 151.15L598.23 129.48ZM611.18 129.48L622.90 129.48L622.90 131.28L613.35 131.28L613.35 139.37L621.41 139.37L621.41 141.17L613.35 141.17L613.35 151.15L611.18 151.15L611.18 129.48ZM632.32 129.48L634.49 129.48L634.49 151.15L632.32 151.15L632.32 129.48ZM644.28 140.30Q644.28 137.11 645.67 134.58Q647.07 132.05 649.49 130.64Q651.91 129.23 654.88 129.23L654.88 129.23Q658.51 129.23 661.10 130.95Q663.69 132.67 664.86 135.81L664.86 135.81L662.32 135.81Q661.39 133.60 659.48 132.36Q657.58 131.12 654.88 131.12L654.88 131.12Q652.49 131.12 650.59 132.24Q648.68 133.36 647.60 135.45Q646.51 137.54 646.51 140.30L646.51 140.30Q646.51 143.06 647.60 145.14Q648.68 147.21 650.59 148.33Q652.49 149.44 654.88 149.44L654.88 149.44Q657.58 149.44 659.48 148.22Q661.39 147.00 662.32 144.83L662.32 144.83L664.86 144.83Q663.69 147.93 661.08 149.63Q658.48 151.34 654.88 151.34L654.88 151.34Q651.91 151.34 649.49 149.93Q647.07 148.52 645.67 146.00Q644.28 143.49 644.28 140.30L644.28 140.30ZM689.47 151.15L687.58 146.00L677.72 146.00L675.83 151.15L673.54 151.15L681.44 129.76L683.89 129.76L691.76 151.15L689.47 151.15ZM678.37 144.21L686.93 144.21L682.65 132.49L678.37 144.21ZM699.54 129.48L713.77 129.48L713.77 131.28L707.75 131.28L707.75 151.15L705.58 151.15L705.58 131.28L699.54 131.28L699.54 129.48ZM737.51 151.15L735.62 146.00L725.76 146.00L723.87 151.15L721.57 151.15L729.48 129.76L731.93 129.76L739.80 151.15L737.51 151.15ZM726.41 144.21L734.97 144.21L730.69 132.49L726.41 144.21ZM734.90 124.09Q734.90 125.73 733.80 126.81Q732.70 127.90 730.69 127.90L730.69 127.90Q728.67 127.90 727.59 126.81Q726.50 125.73 726.50 124.09L726.50 124.09L726.50 123.68L727.87 123.68Q727.87 126.16 730.69 126.16L730.69 126.16Q733.51 126.16 733.51 123.68L733.51 123.68L734.90 123.68L734.90 124.09Z"></path>
</svg>